# xmcd CD database file
#
# Track frame offsets:
#	150
#	28078
#	31670
#	52772
#	75039
#	91087
#	122622
#	150321
#	175793
#
# Disc length: 2435 seconds
#
# Revision: 0
# Processed by: cddbd v1.5.1PL2 Copyright (c) Steve Scherf et al.
# Submitted via: CDex 1.51
#
DISCID=4b098109
DTITLE=J.J. Johnson - Live at Cafe Bohemia New York 1957
DYEAR=1957
DGENRE=Jazz
TTITLE0=Bernie's Tune
TTITLE1=Announcement
TTITLE2=In A Little Provincial Town
TTITLE3=I Should Care
TTITLE4=Angel Eyes
TTITLE5=Old Devil Moon
TTITLE6=My Old Flame
TTITLE7=Dailie Double
TTITLE8=Theme
EXTD=YEAR: 1957
EXTT0=
EXTT1=
EXTT2=
EXTT3=
EXTT4=
EXTT5=
EXTT6=
EXTT7=
EXTT8=
PLAYORDER=
